<svg width="36" height="36" viewBox="0 0 36 36" fill="none" xmlns="http://www.w3.org/2000/svg">
<circle cx="18" cy="18" r="18" fill="#2B2F32"/>
<path d="M20.6633 21.3798C20.6633 22.0255 20.4936 22.5942 20.1543 23.0859C19.815 23.5776 19.3241 23.9518 18.6815 24.2086C18.039 24.4655 17.2918 24.5939 16.4399 24.5939C15.6025 24.5939 14.7903 24.4361 14.0034 24.1206C13.2165 23.805 12.5487 23.3684 12 22.8107L13.5377 20.7633C13.9131 21.0569 14.3571 21.2954 14.8697 21.4788C15.3396 21.647 15.8064 21.7442 16.2702 21.7706L16.3966 21.776C16.6565 21.7907 16.8839 21.7724 17.0788 21.721C17.2738 21.6696 17.4254 21.5889 17.5337 21.4788C17.6299 21.381 17.6834 21.2686 17.6941 21.1418L17.6961 21.0936C17.7105 20.8881 17.5914 20.712 17.3387 20.5652C17.1029 20.4282 16.7633 20.2976 16.3199 20.1734L16.2233 20.1469C15.0105 19.824 14.0467 19.3471 13.332 18.716C12.6173 18.0849 12.2743 17.3511 12.3032 16.5145C12.3321 15.8394 12.5234 15.245 12.8772 14.7313C13.2309 14.2176 13.7254 13.8177 14.3607 13.5315C14.996 13.2453 15.7396 13.1169 16.5915 13.1462C17.3857 13.1756 18.1473 13.3554 18.8765 13.6856C19.6056 14.0158 20.2373 14.4525 20.7716 14.9955L19.1905 17.0649C18.9451 16.8154 18.6094 16.5952 18.1834 16.4044C17.7575 16.2136 17.3351 16.0815 16.9164 16.0082C16.6276 15.9788 16.3569 15.9788 16.1042 16.0082C15.8515 16.0375 15.6494 16.0999 15.4978 16.1953C15.3462 16.2907 15.2632 16.4118 15.2487 16.5585C15.2487 16.7934 15.3823 16.9988 15.6494 17.1749C15.9165 17.3511 16.2739 17.4978 16.7215 17.6152C18.021 18.0262 19.0028 18.5472 19.667 19.1783C20.3312 19.8094 20.6633 20.5432 20.6633 21.3798Z" fill="white"/>
<path d="M28 24.3502C26.3904 24.3502 25.1353 23.9043 24.2345 23.0126C23.3337 22.1208 22.8833 20.8855 22.8833 19.3066V9H25.9401V19.3066C25.9401 20.0229 26.121 20.5821 26.4827 20.9841C26.8445 21.3862 27.3503 21.5872 28 21.5872V24.3502Z" fill="white"/>
<path d="M8 24C9.10457 24 10 23.1046 10 22C10 20.8954 9.10457 20 8 20C6.89543 20 6 20.8954 6 22C6 23.1046 6.89543 24 8 24Z" fill="#FF5821"/>
</svg>
