<svg width="24" height="24" fill="none" xmlns="http://www.w3.org/2000/svg"><circle cx="12" cy="12" r="4" fill="#FCD22A"/><path fill-rule="evenodd" clip-rule="evenodd" d="M13 4a1 1 0 10-2 0v1a1 1 0 102 0V4zm0 15a1 1 0 10-2 0v1a1 1 0 102 0v-1zM18.364 7.05a1 1 0 10-1.414-1.414l-.707.707a1 1 0 001.414 1.414l.707-.707zM7.757 17.657a1 1 0 10-1.414-1.414l-.707.707a1 1 0 001.414 1.414l.707-.707zM4 11a1 1 0 100 2h1a1 1 0 100-2H4zm15 0a1 1 0 100 2h1a1 1 0 100-2h-1zM7.05 5.636A1 1 0 005.636 7.05l.707.707a1 1 0 101.414-1.414l-.707-.707zm10.607 10.607a1 1 0 00-1.415 1.414l.707.707a1 1 0 001.415-1.414l-.707-.707z" fill="#FCD22A"/></svg>