<svg width="24" height="24" fill="none" xmlns="http://www.w3.org/2000/svg"><circle cx="12" cy="12" r="6" fill="#FFDF37"/><path fill-rule="evenodd" clip-rule="evenodd" d="M13 1a1 1 0 1 0-2 0v2a1 1 0 1 0 2 0V1zm0 20a1 1 0 1 0-2 0v2a1 1 0 1 0 2 0v-2zM1 11a1 1 0 1 0 0 2h2a1 1 0 1 0 0-2H1zm20 0a1 1 0 1 0 0 2h2a1 1 0 1 0 0-2h-2zM4.929 3.515a1 1 0 1 0-1.414 1.414l1.414 1.414A1 1 0 1 0 6.343 4.93L4.93 3.515zM19.07 17.657a1 1 0 1 0-1.414 1.414l1.414 1.414a1 1 0 0 0 1.414-1.414l-1.414-1.414zM20.485 4.929a1 1 0 0 0-1.414-1.414l-1.414 1.414a1 1 0 0 0 1.414 1.414l1.414-1.414zM6.343 19.07a1 1 0 1 0-1.414-1.414L3.515 19.07a1 1 0 1 0 1.414 1.414l1.414-1.414z" fill="#FFDF37"/></svg>